<?xml version="1.0" standalone="yes"?>
<svg xmlns="http://www.w3.org/2000/svg" width="159" height="159">
<path style="fill:#fefffb; stroke:none;" d="M0 0L0 159L16 159C10.211 154.618 4.50105 151.249 1.96605 144C-1.16923 135.035 1 122.431 1 113L1 46C1 33.0533 -2.23668 16.9255 8.04321 7.10493C17.5175 -1.94606 32.9656 1 45 1L117 1C125.473 1 137.098 -1.04243 145 2.36728C150.485 4.73433 154.463 9.3584 158 14C159.769 9.78343 159 4.54118 159 0L0 0z"/>
<path style="fill:#f5a7b7; stroke:none;" d="M17 1L18 2L17 1z"/>
<path style="fill:#eb2755; stroke:none;" d="M4 145C8.92801 145.376 13.0868 148.425 9 153L9 155C20.9651 160.683 34.0101 159 47 159L115 159C125.961 159 141.867 162.018 150.96 154.606C161.167 146.287 159 132.705 159 121L159 45C159 34.4421 161.452 20.4364 155.775 11.0039C148.655 -0.827484 133.806 1 122 1L38 1C25.8451 1 12.047 -0.81282 4.48302 11.0895C0.681864 17.0708 3.86432 20.8832 4.78704 27C5.75904 33.4435 5 40.4912 5 47C5 79.6631 4.02158 112.421 4 145z"/>
<path style="fill:#eb809a; stroke:none;" d="M141.667 1.33333C141.222 1.77779 142.278 1.72221 142.333 1.66667C142.778 1.22224 141.722 1.27776 141.667 1.33333z"/>
<path style="fill:#fabeca; stroke:none;" d="M143 1L144 2L143 1z"/>
<path style="fill:#e99fb0; stroke:none;" d="M14 2L15 3L14 2z"/>
<path style="fill:#f27293; stroke:none;" d="M145 2L146 3L145 2z"/>
<path style="fill:#f88aa7; stroke:none;" d="M12 3L13 4L12 3z"/>
<path style="fill:#e2758c; stroke:none;" d="M147 3L148 4L147 3z"/>
<path style="fill:#ffaec3; stroke:none;" d="M10 4L11 5L10 4z"/>
<path style="fill:#e98fa8; stroke:none;" d="M149 4L150 5L149 4z"/>
<path style="fill:#ee869f; stroke:none;" d="M9 5L10 6L9 5z"/>
<path style="fill:#df6282; stroke:none;" d="M8 6L9 7L8 6z"/>
<path style="fill:#f1608b; stroke:none;" d="M7 7L8 8L7 7z"/>
<path style="fill:#ed7e8f; stroke:none;" d="M5 9L6 10L5 9z"/>
<path style="fill:#ffabc4; stroke:none;" d="M4 10L5 11L4 10z"/>
<path style="fill:#e97695; stroke:none;" d="M155 10L156 11L155 10z"/>
<path style="fill:#ffbccf; stroke:none;" d="M156 11L157 12L156 11z"/>
<path style="fill:#f98fa6; stroke:none;" d="M3 12L4 13L3 12z"/>
<path style="fill:#ffacc4; stroke:none;" d="M157 13L158 14L157 13z"/>
<path style="fill:#f897ab; stroke:none;" d="M2 14L3 15L2 14z"/>
<path style="fill:#e75e88; stroke:none;" d="M157 14L158 15L157 14z"/>
<path style="fill:#ffd3e5; stroke:none;" d="M158.333 14.6667C158.278 14.7222 158.222 15.7778 158.667 15.3333C158.722 15.2778 158.778 14.2222 158.333 14.6667z"/>
<path style="fill:#fba7b7; stroke:none;" d="M1.33333 16.6667C1.27778 16.7222 1.22222 17.7778 1.66667 17.3333C1.72224 17.2778 1.77779 16.2222 1.33333 16.6667z"/>
<path style="fill:#f45279; stroke:none;" d="M158.333 16.6667C158.278 16.7222 158.222 17.7778 158.667 17.3333C158.722 17.2778 158.778 16.2222 158.333 16.6667z"/>
<path style="fill:#e95c7e; stroke:none;" d="M26 17C29.6987 18.552 34.0172 18 38 18L59 18L134 18C130.301 16.448 125.983 17 122 17L101 17L26 17z"/>
<path style="fill:#de496f; stroke:none;" d="M1.33333 18.6667C1.27781 18.7222 1.22219 19.7778 1.66667 19.3333C1.72224 19.2778 1.77779 18.2222 1.33333 18.6667z"/>
<path style="fill:#f5bec4; stroke:none;" d="M24 18L25 19L24 18z"/>
<path style="fill:#ffffff; stroke:none;" d="M27 142C26.3502 140.7 26.8532 141 25 141L29 140C27.535 137.878 26.5431 137.526 24 137C34.9646 134.674 48.8384 135.09 60 136.17C64.3406 136.59 68.6219 137.921 73 137.921C78.3442 137.922 83.674 136.454 89 136.09C105.309 134.973 125.224 133.826 141 138C143.267 128.479 142 117.749 142 108L142 52L142 32C141.994 28.6555 142.267 24.997 140.258 22.1088C135.45 15.1979 121.318 18 114 18L46 18C38.7778 18 26.0087 15.5228 20.5725 21.3943C15.4738 26.9013 18 40.0155 18 47L18 117C18 126.249 15.1907 139.61 27 142z"/>
<path style="fill:#e9819a; stroke:none;" d="M136 18L137 19L136 18z"/>
<path style="fill:#d2597a; stroke:none;" d="M21 19L22 20L21 19z"/>
<path style="fill:#ffb0c8; stroke:none;" d="M22 19L23 20L22 19z"/>
<path style="fill:#ec7690; stroke:none;" d="M138 19L139 20L138 19z"/>
<path style="fill:#e92555; stroke:none;" d="M1 20L1 123C1 130.847 -0.0755215 139.633 3.21373 146.999C4.19468 149.196 6.59045 153.608 9.6821 152.503C12.1245 151.63 11.5051 148.102 10.1389 146.603C8.57549 144.886 6.10246 145.069 4 145C4.08531 114.082 5 83.001 5 52L4.99923 31C4.9762 26.5776 4.91443 22.5967 1 20z"/>
<path style="fill:#f26182; stroke:none;" d="M20 20L21 21L20 20z"/>
<path style="fill:#fd86a2; stroke:none;" d="M139 20L140 21L139 20z"/>
<path style="fill:#db5f7b; stroke:none;" d="M19 21L20 22L19 21z"/>
<path style="fill:#fa85a2; stroke:none;" d="M140 21L141 22L140 21z"/>
<path style="fill:#ffb7c4; stroke:none;" d="M19 22L20 23L19 22z"/>
<path style="fill:#ff91ad; stroke:none;" d="M141 23L142 24L141 23z"/>
<path style="fill:#e26b89; stroke:none;" d="M142.333 24.6667C142.278 24.7222 142.222 25.7778 142.667 25.3333C142.722 25.2778 142.778 24.2222 142.333 24.6667z"/>
<path style="fill:#ec5c7f; stroke:none;" d="M17 26L17 134C19.9032 127.081 18 116.48 18 109L18 54C18 45.7293 20.2056 33.6394 17 26z"/>
<path style="fill:#f991aa; stroke:none;" d="M142 26L142 134C144.903 127.081 143 116.48 143 109L143 54C143 45.7293 145.206 33.6394 142 26z"/>
<path style="fill:#ce5775; stroke:none;" d="M142.333 134.667C142.278 134.722 142.222 135.778 142.667 135.333C142.722 135.278 142.778 134.222 142.333 134.667z"/>
<path style="fill:#df5475; stroke:none;" d="M18.3333 136.667C18.2778 136.722 18.2222 137.778 18.6667 137.333C18.7222 137.278 18.7778 136.222 18.3333 136.667z"/>
<path style="fill:#fefeff; stroke:none;" d="M24 136L29 140L25 140C31.855 144.683 45.8877 142 54 142L111 142C120.321 142 131.291 143.69 140 140L140 138C130.342 133.352 115.579 136 105 136C94.2749 136 83.6097 137.825 73 137.821C68.3014 137.819 63.6996 136.245 59 136.039C47.3472 135.528 35.6484 136.455 24 136z"/>
<path style="fill:#ffacc0; stroke:none;" d="M141 136L142 137L141 136z"/>
<path style="fill:#f16882; stroke:none;" d="M141 137L142 138L141 137z"/>
<path style="fill:#f37b97; stroke:none;" d="M19 138L20 139L19 138z"/>
<path style="fill:#ebc2c8; stroke:none;" d="M140 138L141 139L140 138z"/>
<path style="fill:#f67697; stroke:none;" d="M20 139L21 140L20 139z"/>
<path style="fill:#dc8fa3; stroke:none;" d="M21 140L22 141L21 140z"/>
<path style="fill:#f8a1b2; stroke:none;" d="M138 140L139 141L138 140z"/>
<path style="fill:#f58da4; stroke:none;" d="M1 141L1 144C1.6961 142.446 1.6961 142.554 1 141z"/>
<path style="fill:#ffa7bc; stroke:none;" d="M23 141L24 142L23 141z"/>
<path style="fill:#ee6b8b; stroke:none;" d="M137 141L138 142L137 141z"/>
<path style="fill:#f196a8; stroke:none;" d="M25 142C29.2151 143.769 34.4645 143 39 143L67 143C62.7849 141.231 57.5355 142 53 142L25 142z"/>
<path style="fill:#fab2be; stroke:none;" d="M67 142C70.1633 143.327 73.5856 143 77 143C73.8367 141.673 70.4144 142 67 142z"/>
<path style="fill:#f196a8; stroke:none;" d="M77 142C82.4625 144.292 90.113 143 96 143L135 143C129.538 140.708 121.887 142 116 142L77 142z"/>
<path style="fill:#ff5e8a; stroke:none;" d="M158.333 142.667C158.278 142.722 158.222 143.778 158.667 143.333C158.722 143.278 158.778 142.222 158.333 142.667z"/>
<path style="fill:#fff9fd; stroke:none;" d="M158 144C155.929 150.974 150.904 155.795 144 158C148.471 159.876 154.183 159 159 159C159 154.183 159.876 148.471 158 144z"/>
<path style="fill:#f1819a; stroke:none;" d="M2 145L3 146L2 145z"/>
<path style="fill:#ed93ac; stroke:none;" d="M157 146L158 147L157 146z"/>
<path style="fill:#fd97af; stroke:none;" d="M156 148L157 149L156 148z"/>
<path style="fill:#f490ac; stroke:none;" d="M4 149L5 150L4 149z"/>
<path style="fill:#e06381; stroke:none;" d="M155 149L156 150L155 149z"/>
<path style="fill:#fcc3cc; stroke:none;" d="M155 150L156 151L155 150z"/>
<path style="fill:#ffc3d0; stroke:none;" d="M5 151L6 152L5 151z"/>
<path style="fill:#fba3b3; stroke:none;" d="M154 151L155 152L154 151z"/>
<path style="fill:#f789a4; stroke:none;" d="M153 152L154 153L153 152z"/>
<path style="fill:#e98c9f; stroke:none;" d="M152 153L153 154L152 153z"/>
<path style="fill:#f0a9b7; stroke:none;" d="M151 154L152 155L151 154z"/>
<path style="fill:#e7778f; stroke:none;" d="M10 155L11 156L10 155z"/>
<path style="fill:#ff839f; stroke:none;" d="M148 156L149 157L148 156z"/>
<path style="fill:#f35e88; stroke:none;" d="M13.6667 157.333C13.2222 157.778 14.2778 157.722 14.3333 157.667C14.7778 157.222 13.7222 157.278 13.6667 157.333z"/>
<path style="fill:#f495ad; stroke:none;" d="M146 157L147 158L146 157z"/>
<path style="fill:#eb91aa; stroke:none;" d="M16 158L17 159L16 158z"/>
<path style="fill:#e47892; stroke:none;" d="M143 158L144 159L143 158z"/>
</svg>
